# xmcd
#
# Track frame offsets:
#	182
#	2367
#	16747
#	30155
#	39237
#	56325
#	79332
#	94792
#	111107
#	122765
#	131912
#	144700
#	163462
#	172050
#	185622
#	199635
#	211695
#	226720
#	238682
#	251380
#	263742
#	277100
#	290885
#	305720
#
# Disc length: 4259 seconds
#
# Revision: 0
# Processed by: cddbd v1.5.1PL0 Copyright (c) Steve Scherf et al.
# Submitted via: dBpowerAMP V4.0
#
DISCID=4f10a118
DTITLE=Iva n Pastor - 24 Christmas songs from around the world
DYEAR=1995
DGENRE=Folklore
TTITLE0=Glocken
TTITLE1=Stille Nacht, heilige Nacht
TTITLE2=Jingle bells
TTITLE3=Still, Still, Still
TTITLE4=Joy to the world
TTITLE5=Alleluja ! Freut euch, ihr Christen alle
TTITLE6=Quem pastores laudavere
TTITLE7=Christmas bells
TTITLE8=Angels we have heard on high
TTITLE9=We wish you a merry Christmas
TTITLE10=Let it snow
TTITLE11=What child is this
TTITLE12=O Tannenbaum
TTITLE13=Silver bells
TTITLE14=Rudolphthe red-nosed reindeer
TTITLE15=Away in a manger
TTITLE16=And the glory of Lord
TTITLE17=Jolly old Saint Nicholas
TTITLE18=A holly jolly Christmas
TTITLE19=Rockin around the Christmas tree
TTITLE20=Merry Christmas darling
TTITLE21=Largo
TTITLE22=The night before Christmas song
TTITLE23=It came upon a midnight clear
EXTD=
EXTT0=
EXTT1=
EXTT2=
EXTT3=
EXTT4=
EXTT5=
EXTT6=
EXTT7=
EXTT8=
EXTT9=
EXTT10=
EXTT11=
EXTT12=
EXTT13=
EXTT14=
EXTT15=
EXTT16=
EXTT17=
EXTT18=
EXTT19=
EXTT20=
EXTT21=
EXTT22=
EXTT23=
PLAYORDER=
